<?xml version="1.0" encoding="UTF-8" standalone="no"?>
<!-- Created with Inkscape (http://www.inkscape.org/) -->

<svg
   version="1.1"
   id="svg9901"
   width="800"
   height="800"
   viewBox="0 0 800 800"
   sodipodi:docname="round-shapes-vector-pdv.svg"
   inkscape:version="1.2 (dc2aedaf03, 2022-05-15)"
   xmlns:inkscape="http://www.inkscape.org/namespaces/inkscape"
   xmlns:sodipodi="http://sodipodi.sourceforge.net/DTD/sodipodi-0.dtd"
   xmlns="http://www.w3.org/2000/svg"
   xmlns:svg="http://www.w3.org/2000/svg">
  <defs
     id="defs9905">
    <clipPath
       clipPathUnits="userSpaceOnUse"
       id="clipPath9917">
      <path
         d="M 0,600 H 600 V 0 H 0 Z"
         id="path9915" />
    </clipPath>
  </defs>
  <sodipodi:namedview
     id="namedview9903"
     pagecolor="#ffffff"
     bordercolor="#000000"
     borderopacity="0.25"
     inkscape:showpageshadow="2"
     inkscape:pageopacity="0.0"
     inkscape:pagecheckerboard="0"
     inkscape:deskcolor="#d1d1d1"
     showgrid="false"
     inkscape:zoom="1.04625"
     inkscape:cx="400"
     inkscape:cy="400.4779"
     inkscape:window-width="1920"
     inkscape:window-height="1017"
     inkscape:window-x="-8"
     inkscape:window-y="-8"
     inkscape:window-maximized="1"
     inkscape:current-layer="g9909">
    <inkscape:page
       x="0"
       y="0"
       id="page9907"
       width="800"
       height="800" />
  </sodipodi:namedview>
  <g
     id="g9909"
     inkscape:groupmode="layer"
     inkscape:label="Page 1"
     transform="matrix(1.3333333,0,0,-1.3333333,0,800)">
    <g
       id="g9911">
      <g
         id="g9913"
         clip-path="url(#clipPath9917)">
        <g
           id="g9919"
           transform="translate(143.5508,469.1235)">
          <path
             d="m 0,0 c 4.866,-0.767 8.189,-5.331 7.422,-10.197 -0.766,-4.866 -5.332,-8.19 -10.197,-7.423 4.363,-2.22 6.099,-7.558 3.879,-11.92 -2.222,-4.364 -7.559,-6.1 -11.922,-3.879 3.533,-3.535 3.531,-9.265 -0.004,-12.797 -3.535,-3.533 -9.265,-3.531 -12.798,0.004 2.218,-4.364 0.478,-9.699 -3.885,-11.916 -4.363,-2.218 -9.698,-0.479 -11.916,3.885 0.763,-4.857 -2.555,-9.413 -7.412,-10.177 -4.857,-0.763 -9.413,2.555 -10.177,7.412 -0.766,-4.865 -5.332,-8.189 -10.197,-7.423 -4.866,0.767 -8.189,5.333 -7.423,10.198 -2.221,-4.362 -7.558,-6.098 -11.921,-3.878 -4.363,2.221 -6.099,7.558 -3.878,11.921 -3.535,-3.533 -9.265,-3.531 -12.798,0.004 -3.533,3.535 -3.531,9.265 0.004,12.797 -4.363,-2.217 -9.698,-0.478 -11.916,3.886 -2.218,4.362 -0.479,9.698 3.885,11.915 -4.857,-0.763 -9.413,2.556 -10.177,7.412 -0.763,4.857 2.556,9.413 7.412,10.176 -4.866,0.767 -8.189,5.333 -7.422,10.198 0.766,4.866 5.332,8.19 10.197,7.423 -4.362,2.22 -6.099,7.558 -3.878,11.921 2.221,4.363 7.558,6.099 11.921,3.878 -3.533,3.535 -3.531,9.266 0.004,12.798 3.535,3.533 9.265,3.532 12.799,-0.004 -2.219,4.364 -0.479,9.699 3.884,11.916 4.364,2.218 9.699,0.479 11.916,-3.885 -0.763,4.857 2.556,9.413 7.412,10.176 4.857,0.764 9.413,-2.554 10.176,-7.411 0.767,4.866 5.332,8.188 10.199,7.423 4.865,-0.767 8.188,-5.333 7.422,-10.199 2.22,4.363 7.558,6.099 11.921,3.879 4.363,-2.221 6.099,-7.558 3.878,-11.921 3.536,3.533 9.265,3.531 12.798,-0.004 3.533,-3.536 3.532,-9.265 -0.004,-12.798 4.364,2.218 9.699,0.478 11.916,-3.886 C 3.338,25.141 1.599,19.806 -2.765,17.589 2.092,18.352 6.648,15.034 7.412,10.177 8.175,5.32 4.857,0.764 0,0"
             style="fill:#231f20;fill-opacity:1;fill-rule:nonzero;stroke:none"
             id="path9921" />
        </g>
        <g
           id="g9923"
           transform="translate(282.1924,469.124)">
          <path
             d="M 0,0 C 10.234,-4.239 15.095,-15.972 10.855,-26.206 6.616,-36.439 -5.116,-41.299 -15.351,-37.06 c 4.24,-10.233 -0.621,-21.966 -10.854,-26.206 -10.233,-4.239 -21.967,0.622 -26.206,10.855 -4.238,-10.233 -15.971,-15.094 -26.205,-10.855 -10.234,4.24 -15.094,15.973 -10.855,26.206 -10.234,-4.239 -21.966,0.621 -26.205,10.854 -4.239,10.235 0.62,21.967 10.854,26.206 -10.234,4.239 -15.093,15.972 -10.854,26.205 4.239,10.234 15.971,15.094 26.205,10.855 -4.239,10.234 0.621,21.966 10.855,26.206 10.234,4.239 21.967,-0.621 26.205,-10.855 4.239,10.234 15.973,15.094 26.206,10.855 10.233,-4.24 15.094,-15.972 10.854,-26.206 C -5.116,41.299 6.616,36.439 10.855,26.206 15.095,15.972 10.234,4.239 0,0"
             style="fill:#231f20;fill-opacity:1;fill-rule:nonzero;stroke:none"
             id="path9925" />
        </g>
        <g
           id="g9927"
           transform="translate(428.3418,469.1235)">
          <path
             d="M 0,0 C 7.837,-2.086 12.498,-10.128 10.412,-17.964 8.326,-25.801 0.283,-30.462 -7.553,-28.376 c 5.79,-5.766 5.809,-15.136 0.041,-20.925 -5.766,-5.79 -15.136,-5.808 -20.925,-0.041 2.117,-7.89 -2.563,-16.003 -10.454,-18.119 -7.89,-2.117 -16.002,2.563 -18.119,10.453 -2.085,-7.836 -10.128,-12.498 -17.964,-10.412 -7.836,2.086 -12.498,10.129 -10.412,17.965 -5.767,-5.79 -15.136,-5.809 -20.925,-0.041 -5.79,5.766 -5.808,15.135 -0.042,20.924 -7.889,-2.116 -16.001,2.563 -18.119,10.453 -2.117,7.89 2.564,16.002 10.453,18.119 -7.835,2.086 -12.497,10.129 -10.412,17.965 2.086,7.836 10.13,12.498 17.966,10.412 -5.79,5.767 -5.808,15.135 -0.041,20.925 5.767,5.79 15.135,5.808 20.925,0.041 -2.117,7.89 2.562,16.003 10.452,18.12 7.891,2.117 16.003,-2.564 18.119,-10.453 2.086,7.836 10.129,12.497 17.965,10.411 7.836,-2.085 12.497,-10.128 10.412,-17.964 5.767,5.79 15.136,5.808 20.926,0.041 5.789,-5.767 5.808,-15.136 0.041,-20.925 C 0.225,30.69 8.336,26.01 10.453,18.12 12.57,10.23 7.891,2.117 0,0"
             style="fill:#231f20;fill-opacity:1;fill-rule:nonzero;stroke:none"
             id="path9929" />
        </g>
        <g
           id="g9931"
           transform="translate(575.0107,469.1235)">
          <path
             d="m 0,0 c 3.556,-0.403 6.11,-3.612 5.707,-7.167 -0.402,-3.556 -3.611,-6.11 -7.166,-5.707 3.277,-1.154 4.999,-4.746 3.846,-8.024 -1.154,-3.277 -4.745,-5 -8.023,-3.846 2.993,-1.887 3.891,-5.843 2.004,-8.836 -1.886,-2.994 -5.843,-3.891 -8.836,-2.004 2.447,-2.439 2.451,-6.399 0.013,-8.846 -2.438,-2.445 -6.399,-2.45 -8.845,-0.011 1.912,-3.025 1.011,-7.028 -2.013,-8.939 -3.026,-1.914 -7.028,-1.012 -8.94,2.013 1.177,-3.382 -0.609,-7.078 -3.991,-8.255 -3.383,-1.18 -7.08,0.608 -8.257,3.991 0.38,-3.455 -2.112,-6.564 -5.566,-6.942 -3.454,-0.381 -6.562,2.111 -6.943,5.565 -0.403,-3.555 -3.611,-6.111 -7.167,-5.707 -3.555,0.402 -6.11,3.611 -5.707,7.166 -1.153,-3.277 -4.746,-5.001 -8.023,-3.846 -3.277,1.152 -5.001,4.745 -3.847,8.022 -1.888,-2.994 -5.844,-3.891 -8.838,-2.004 -2.993,1.887 -3.89,5.843 -2.004,8.837 -2.438,-2.447 -6.398,-2.452 -8.843,-0.013 -2.447,2.438 -2.452,6.398 -0.013,8.844 -3.025,-1.912 -7.027,-1.011 -8.94,2.013 -1.913,3.026 -1.01,7.028 2.014,8.94 -3.382,-1.178 -7.079,0.61 -8.256,3.992 -1.179,3.382 0.61,7.079 3.992,8.256 -3.455,-0.38 -6.563,2.112 -6.943,5.566 -0.38,3.454 2.112,6.562 5.565,6.942 -3.554,0.403 -6.11,3.612 -5.707,7.168 0.403,3.555 3.613,6.11 7.168,5.707 -3.278,1.154 -5,4.746 -3.848,8.024 1.154,3.278 4.747,5 8.024,3.847 -2.994,1.886 -3.89,5.842 -2.005,8.836 1.887,2.993 5.843,3.891 8.837,2.004 -2.446,2.439 -2.451,6.399 -0.012,8.845 2.439,2.446 6.398,2.451 8.844,0.012 -1.913,3.025 -1.011,7.027 2.014,8.939 3.024,1.913 7.026,1.011 8.939,-2.014 -1.177,3.383 0.61,7.079 3.992,8.257 3.382,1.177 7.079,-0.61 8.257,-3.992 -0.381,3.454 2.111,6.562 5.566,6.942 3.453,0.38 6.561,-2.111 6.941,-5.565 0.404,3.555 3.613,6.11 7.168,5.707 3.555,-0.403 6.111,-3.612 5.707,-7.167 1.154,3.278 4.745,5 8.024,3.847 3.277,-1.153 5,-4.746 3.846,-8.023 1.886,2.994 5.843,3.891 8.837,2.005 2.993,-1.887 3.891,-5.843 2.004,-8.837 2.44,2.445 6.4,2.451 8.845,0.012 2.446,-2.439 2.451,-6.399 0.013,-8.844 3.024,1.912 7.026,1.011 8.939,-2.014 1.912,-3.025 1.011,-7.027 -2.014,-8.94 3.382,1.178 7.078,-0.609 8.256,-3.991 C 3.793,17.383 2.006,13.686 -1.376,12.508 2.077,12.888 5.187,10.397 5.565,6.942 5.946,3.488 3.454,0.38 0,0"
             style="fill:#231f20;fill-opacity:1;fill-rule:nonzero;stroke:none"
             id="path9933" />
        </g>
        <g
           id="g9935"
           transform="translate(143.5508,314.3218)">
          <path
             d="M 0,0 C 2.495,-0.197 4.359,-2.379 4.162,-4.874 3.965,-7.37 1.783,-9.232 -0.712,-9.036 c 2.395,-0.578 3.868,-2.987 3.291,-5.383 -0.578,-2.395 -2.988,-3.869 -5.383,-3.29 2.275,-0.948 3.352,-3.56 2.405,-5.834 -0.948,-2.277 -3.559,-3.352 -5.835,-2.406 2.048,-1.255 2.69,-3.931 1.436,-5.979 -1.254,-2.048 -3.932,-2.691 -5.979,-1.436 1.911,-1.628 2.141,-4.496 0.514,-6.407 -1.628,-1.911 -4.496,-2.142 -6.407,-0.514 1.598,-1.865 1.381,-4.673 -0.484,-6.271 -1.866,-1.6 -4.674,-1.383 -6.272,0.483 1.307,-2.127 0.644,-4.91 -1.482,-6.218 -2.127,-1.309 -4.911,-0.645 -6.218,1.481 0.953,-2.307 -0.144,-4.95 -2.451,-5.904 -2.306,-0.953 -4.95,0.143 -5.904,2.45 0.564,-2.359 -0.891,-4.729 -3.25,-5.292 -2.359,-0.565 -4.728,0.891 -5.292,3.25 0.194,-2.482 -1.66,-4.651 -4.142,-4.845 -2.481,-0.194 -4.65,1.659 -4.845,4.141 -0.197,-2.495 -2.378,-4.359 -4.873,-4.161 -2.495,0.196 -4.359,2.378 -4.162,4.874 -0.578,-2.396 -2.988,-3.869 -5.383,-3.291 -2.394,0.578 -3.868,2.987 -3.29,5.382 -0.947,-2.275 -3.56,-3.351 -5.835,-2.405 -2.275,0.947 -3.352,3.56 -2.404,5.835 -1.255,-2.048 -3.932,-2.69 -5.98,-1.436 -2.047,1.255 -2.69,3.931 -1.436,5.979 -1.627,-1.911 -4.496,-2.141 -6.407,-0.514 -1.911,1.628 -2.141,4.497 -0.514,6.408 -1.865,-1.599 -4.674,-1.382 -6.272,0.483 -1.598,1.866 -1.381,4.674 0.484,6.273 -2.126,-1.309 -4.911,-0.645 -6.218,1.481 -1.308,2.127 -0.645,4.91 1.482,6.219 -2.307,-0.954 -4.951,0.142 -5.905,2.449 -0.954,2.307 0.143,4.95 2.45,5.904 -2.359,-0.563 -4.728,0.892 -5.292,3.252 -0.563,2.358 0.892,4.726 3.251,5.291 -2.482,-0.195 -4.652,1.659 -4.847,4.14 -0.194,2.483 1.66,4.653 4.142,4.847 -2.495,0.196 -4.359,2.378 -4.162,4.874 0.197,2.495 2.379,4.358 4.874,4.161 -2.395,0.578 -3.868,2.988 -3.291,5.383 0.578,2.394 2.988,3.869 5.383,3.291 -2.275,0.946 -3.351,3.559 -2.404,5.834 0.947,2.275 3.559,3.352 5.834,2.404 -2.047,1.255 -2.691,3.933 -1.436,5.98 1.255,2.048 3.932,2.69 5.979,1.435 -1.91,1.628 -2.141,4.496 -0.513,6.408 1.627,1.911 4.496,2.141 6.406,0.513 -1.598,1.866 -1.381,4.674 0.484,6.273 1.866,1.598 4.674,1.382 6.272,-0.484 -1.308,2.126 -0.644,4.911 1.482,6.219 2.127,1.308 4.911,0.644 6.219,-1.482 -0.954,2.306 0.143,4.95 2.45,5.904 2.307,0.954 4.95,-0.143 5.904,-2.45 -0.564,2.359 0.892,4.728 3.25,5.292 2.359,0.563 4.728,-0.891 5.292,-3.25 -0.194,2.481 1.66,4.651 4.142,4.845 2.481,0.194 4.65,-1.66 4.844,-4.141 0.197,2.495 2.379,4.358 4.874,4.161 2.495,-0.196 4.358,-2.378 4.161,-4.874 0.578,2.395 2.988,3.869 5.383,3.291 2.396,-0.577 3.869,-2.987 3.291,-5.382 0.947,2.274 3.56,3.351 5.835,2.404 2.275,-0.947 3.352,-3.56 2.405,-5.835 1.254,2.048 3.931,2.691 5.979,1.437 2.047,-1.254 2.691,-3.932 1.436,-5.98 1.627,1.912 4.496,2.142 6.407,0.514 1.911,-1.627 2.141,-4.496 0.514,-6.406 1.866,1.598 4.674,1.381 6.272,-0.484 1.598,-1.866 1.382,-4.674 -0.484,-6.272 2.126,1.308 4.911,0.645 6.218,-1.482 1.308,-2.127 0.645,-4.911 -1.482,-6.218 2.307,0.954 4.951,-0.143 5.905,-2.45 0.954,-2.307 -0.143,-4.951 -2.45,-5.905 2.359,0.565 4.728,-0.891 5.292,-3.25 C 3.11,11.919 1.655,9.551 -0.704,8.986 1.778,9.181 3.947,7.327 4.142,4.846 4.336,2.363 2.482,0.194 0,0"
             style="fill:#231f20;fill-opacity:1;fill-rule:nonzero;stroke:none"
             id="path9937" />
        </g>
        <g
           id="g9939"
           transform="translate(286.792,314.3218)">
          <path
             d="M 0,0 C 1.002,-0.063 1.712,-1.74 1.585,-3.745 1.459,-5.75 0.543,-7.324 -0.459,-7.261 0.562,-7.46 1.066,-9.278 0.668,-11.32 c -0.398,-2.043 -1.549,-3.537 -2.571,-3.338 0.997,-0.338 1.257,-2.228 0.582,-4.221 -0.676,-1.994 -2.032,-3.336 -3.028,-2.998 0.903,-0.446 0.913,-2.27 0.022,-4.076 -0.892,-1.805 -2.345,-2.908 -3.248,-2.462 0.847,-0.564 0.62,-2.394 -0.508,-4.088 -1.128,-1.695 -2.728,-2.612 -3.576,-2.047 0.793,-0.695 0.312,-2.542 -1.076,-4.129 -1.386,-1.587 -3.155,-2.311 -3.948,-1.617 0.686,-0.782 -0.025,-2.525 -1.588,-3.896 -1.562,-1.37 -3.383,-1.848 -4.069,-1.067 0.569,-0.848 -0.347,-2.455 -2.043,-3.59 -1.696,-1.135 -3.53,-1.368 -4.099,-0.52 0.449,-0.902 -0.652,-2.36 -2.456,-3.255 -1.805,-0.897 -3.631,-0.891 -4.079,0.011 0.34,-0.994 -0.998,-2.351 -2.986,-3.029 -1.989,-0.68 -3.876,-0.424 -4.216,0.57 0.199,-1 -1.261,-2.135 -3.261,-2.533 -2.002,-0.398 -3.786,0.09 -3.985,1.09 0.069,-1.041 -1.565,-1.997 -3.649,-2.134 -2.083,-0.137 -3.828,0.598 -3.896,1.639 -0.064,-1.002 -1.741,-1.712 -3.746,-1.586 -2.004,0.127 -3.579,1.041 -3.515,2.044 -0.2,-1.022 -2.018,-1.526 -4.06,-1.127 -2.043,0.398 -3.537,1.55 -3.338,2.571 -0.337,-0.997 -2.227,-1.257 -4.22,-0.581 -1.993,0.675 -3.335,2.03 -2.998,3.027 -0.445,-0.902 -2.27,-0.912 -4.075,-0.021 -1.806,0.891 -2.908,2.346 -2.463,3.248 -0.564,-0.848 -2.394,-0.62 -4.088,0.508 -1.695,1.128 -2.611,2.728 -2.047,3.575 -0.693,-0.794 -2.542,-0.312 -4.129,1.075 -1.587,1.388 -2.311,3.155 -1.617,3.948 -0.781,-0.684 -2.525,0.027 -3.896,1.588 -1.37,1.563 -1.848,3.385 -1.067,4.07 -0.848,-0.568 -2.455,0.347 -3.59,2.043 -1.135,1.695 -1.368,3.53 -0.519,4.097 -0.903,-0.447 -2.361,0.653 -3.257,2.457 -0.895,1.806 -0.89,3.632 0.012,4.079 -0.994,-0.338 -2.351,0.997 -3.03,2.987 -0.679,1.989 -0.424,3.877 0.571,4.216 -1,-0.199 -2.135,1.262 -2.533,3.263 -0.399,2.001 0.09,3.784 1.09,3.983 -1.042,-0.068 -1.997,1.566 -2.134,3.649 -0.136,2.084 0.598,3.829 1.639,3.897 -1.002,0.064 -1.712,1.739 -1.586,3.745 0.127,2.005 1.042,3.578 2.045,3.516 -1.022,0.199 -1.527,2.016 -1.128,4.059 0.399,2.042 1.55,3.536 2.571,3.337 -0.996,0.338 -1.257,2.229 -0.581,4.222 0.675,1.993 2.03,3.335 3.027,2.997 -0.902,0.445 -0.912,2.271 -0.021,4.075 0.891,1.806 2.345,2.908 3.248,2.463 -0.847,0.564 -0.619,2.394 0.508,4.089 1.127,1.693 2.728,2.61 3.575,2.046 -0.793,0.693 -0.312,2.543 1.075,4.129 1.388,1.587 3.156,2.31 3.949,1.617 -0.686,0.781 0.025,2.525 1.587,3.895 1.563,1.371 3.385,1.849 4.07,1.068 -0.568,0.847 0.348,2.455 2.043,3.59 1.696,1.134 3.531,1.368 4.098,0.519 -0.448,0.903 0.652,2.361 2.457,3.257 1.805,0.896 3.631,0.89 4.079,-0.013 -0.34,0.995 0.998,2.352 2.986,3.03 1.989,0.679 3.876,0.424 4.216,-0.57 -0.199,1 1.261,2.135 3.262,2.533 2.001,0.398 3.785,-0.09 3.984,-1.09 -0.068,1.041 1.565,1.997 3.649,2.134 2.084,0.137 3.828,-0.598 3.897,-1.639 0.062,1.002 1.74,1.712 3.744,1.586 2.006,-0.127 3.58,-1.041 3.517,-2.044 0.199,1.022 2.016,1.525 4.059,1.127 2.042,-0.399 3.537,-1.55 3.338,-2.571 0.337,0.997 2.227,1.257 4.22,0.581 1.993,-0.675 3.335,-2.03 2.998,-3.027 0.445,0.902 2.269,0.912 4.075,0.021 1.805,-0.89 2.909,-2.346 2.462,-3.247 0.565,0.846 2.396,0.62 4.089,-0.508 1.694,-1.128 2.612,-2.729 2.047,-3.576 0.694,0.794 2.543,0.312 4.129,-1.076 1.587,-1.386 2.311,-3.154 1.617,-3.948 0.78,0.685 2.525,-0.025 3.896,-1.588 1.37,-1.562 1.848,-3.384 1.067,-4.069 0.848,0.567 2.455,-0.347 3.59,-2.043 1.136,-1.695 1.368,-3.53 0.519,-4.098 0.903,0.449 2.361,-0.652 3.257,-2.457 0.896,-1.805 0.89,-3.631 -0.012,-4.079 0.994,0.339 2.351,-0.997 3.031,-2.986 0.678,-1.989 0.424,-3.877 -0.572,-4.216 1,0.199 2.134,-1.262 2.533,-3.262 C 0.992,9.527 0.505,7.744 -0.496,7.545 0.546,7.613 1.501,5.98 1.638,3.897 1.774,1.812 1.041,0.068 0,0"
             style="fill:#231f20;fill-opacity:1;fill-rule:nonzero;stroke:none"
             id="path9941" />
        </g>
        <g
           id="g9943"
           transform="translate(428.3418,314.3218)">
          <path
             d="m 0,0 c 2.434,-0.383 3.784,-4.639 3.018,-9.505 -0.767,-4.865 -3.36,-8.498 -5.793,-8.116 2.182,-1.111 2.15,-5.547 -0.072,-9.91 -2.22,-4.363 -5.789,-7 -7.97,-5.889 1.766,-1.768 0.332,-6.064 -3.204,-9.598 -3.535,-3.532 -7.833,-4.964 -9.599,-3.196 1.109,-2.182 -1.529,-5.748 -5.893,-7.966 -4.364,-2.218 -8.8,-2.247 -9.909,-0.066 0.383,-2.428 -3.246,-5.014 -8.102,-5.779 -4.857,-0.763 -9.103,0.586 -9.486,3.015 -0.383,-2.433 -4.637,-3.783 -9.504,-3.017 -4.865,0.767 -8.5,3.36 -8.116,5.792 -1.111,-2.181 -5.547,-2.149 -9.91,0.072 -4.363,2.221 -7,5.789 -5.889,7.971 -1.768,-1.766 -6.064,-0.332 -9.597,3.202 -3.534,3.535 -4.965,7.833 -3.197,9.6 -2.181,-1.109 -5.748,1.529 -7.966,5.892 -2.217,4.365 -2.247,8.8 -0.066,9.909 -2.428,-0.382 -5.016,3.247 -5.778,8.104 -0.764,4.856 0.586,9.102 3.013,9.485 -2.431,0.383 -3.783,4.638 -3.016,9.504 0.765,4.865 3.359,8.499 5.793,8.116 -2.182,1.11 -2.151,5.547 0.071,9.909 2.221,4.364 5.789,7 7.971,5.89 -1.767,1.768 -0.333,6.064 3.203,9.598 3.535,3.533 7.832,4.963 9.599,3.196 -1.109,2.182 1.53,5.748 5.893,7.966 4.363,2.218 8.8,2.247 9.908,0.065 -0.381,2.429 3.246,5.015 8.104,5.779 4.856,0.764 9.102,-0.585 9.484,-3.014 0.383,2.432 4.639,3.784 9.505,3.017 4.865,-0.767 8.498,-3.36 8.115,-5.793 1.112,2.182 5.548,2.15 9.911,-0.071 4.363,-2.221 7,-5.79 5.889,-7.972 1.768,1.767 6.065,0.333 9.598,-3.202 3.533,-3.535 4.964,-7.832 3.196,-9.599 2.182,1.109 5.749,-1.53 7.967,-5.893 2.218,-4.363 2.246,-8.8 0.064,-9.908 C -0.336,17.97 2.251,14.342 3.016,9.484 3.778,4.628 2.429,0.382 0,0"
             style="fill:#231f20;fill-opacity:1;fill-rule:nonzero;stroke:none"
             id="path9945" />
        </g>
        <g
           id="g9947"
           transform="translate(575.0098,314.3218)">
          <path
             d="m 0,0 c 5.565,-2.306 6.342,-13.198 1.729,-24.332 -4.61,-11.131 -12.861,-18.286 -18.426,-15.981 2.304,-5.565 -4.85,-13.815 -15.983,-18.426 -11.132,-4.611 -22.024,-3.837 -24.33,1.729 -2.304,-5.566 -13.198,-6.34 -24.329,-1.73 -11.132,4.612 -18.287,12.862 -15.982,18.427 -5.567,-2.305 -13.816,4.85 -18.427,15.982 -4.611,11.133 -3.837,22.025 1.728,24.331 -5.565,2.305 -6.339,13.198 -1.728,24.33 4.611,11.132 12.861,18.286 18.427,15.982 -2.305,5.565 4.85,13.815 15.982,18.425 11.131,4.612 22.025,3.838 24.329,-1.728 2.306,5.566 13.198,6.34 24.33,1.729 11.133,-4.611 18.287,-12.861 15.983,-18.426 5.566,2.304 13.816,-4.85 18.426,-15.982 C 6.342,13.198 5.565,2.305 0,0"
             style="fill:#231f20;fill-opacity:1;fill-rule:nonzero;stroke:none"
             id="path9949" />
        </g>
        <g
           id="g9951"
           transform="translate(146.9214,161.9131)">
          <path
             d="m 0,0 c 3.198,-0.636 4.761,-6.336 3.49,-12.732 -1.272,-6.397 -4.894,-11.067 -8.093,-10.432 2.691,-1.8 1.954,-7.622 -1.648,-13.004 -3.601,-5.382 -8.701,-8.286 -11.392,-6.485 1.81,-2.7 -1.097,-7.823 -6.495,-11.444 -5.398,-3.621 -11.241,-4.369 -13.051,-1.67 0.637,-3.202 -4.038,-6.831 -10.442,-8.104 -6.405,-1.274 -12.112,0.289 -12.749,3.49 -0.636,-3.198 -6.336,-4.76 -12.733,-3.489 -6.396,1.271 -11.067,4.894 -10.431,8.093 -1.801,-2.691 -7.623,-1.953 -13.005,1.647 -5.382,3.601 -8.285,8.702 -6.484,11.393 -2.699,-1.811 -7.822,1.097 -11.444,6.495 -3.62,5.397 -4.368,11.24 -1.669,13.051 -3.203,-0.638 -6.831,4.038 -8.105,10.441 -1.274,6.404 0.288,12.112 3.49,12.75 -3.197,0.636 -4.76,6.336 -3.489,12.732 1.271,6.396 4.894,11.067 8.092,10.431 -2.691,1.801 -1.953,7.623 1.648,13.005 3.601,5.382 8.702,8.285 11.393,6.485 -1.811,2.698 1.097,7.822 6.494,11.443 5.398,3.622 11.242,4.369 13.052,1.671 -0.637,3.201 4.038,6.831 10.442,8.104 6.404,1.274 12.111,-0.289 12.749,-3.491 0.635,3.198 6.336,4.761 12.733,3.489 6.396,-1.271 11.066,-4.893 10.431,-8.092 1.8,2.691 7.622,1.952 13.004,-1.647 5.382,-3.602 8.286,-8.702 6.485,-11.393 2.699,1.81 7.822,-1.097 11.443,-6.495 3.621,-5.397 4.369,-11.24 1.67,-13.051 3.202,0.637 6.831,-4.038 8.105,-10.442 C 4.765,6.345 3.202,0.637 0,0"
             style="fill:#231f20;fill-opacity:1;fill-rule:nonzero;stroke:none"
             id="path9953" />
        </g>
        <g
           id="g9955"
           transform="translate(290.1621,161.9131)">
          <path
             d="m 0,0 c 1.759,0.481 3.964,-1.978 4.929,-5.494 0.963,-3.517 0.319,-6.757 -1.44,-7.238 1.441,-1.118 0.797,-4.359 -1.437,-7.239 -2.236,-2.881 -5.214,-4.31 -6.654,-3.193 1.794,-0.227 2.881,-3.322 2.427,-6.914 -0.455,-3.592 -2.28,-6.318 -4.075,-6.09 0.896,-1.573 -0.929,-4.301 -4.075,-6.091 -3.147,-1.791 -6.422,-1.968 -7.318,-0.394 1.58,-0.897 1.407,-4.186 -0.387,-7.346 -1.793,-3.159 -4.529,-4.995 -6.108,-4.098 0.232,-1.801 -2.504,-3.636 -6.108,-4.097 -3.605,-0.462 -6.713,0.625 -6.943,2.427 1.119,-1.441 -0.312,-4.424 -3.195,-6.663 -2.883,-2.238 -6.129,-2.883 -7.247,-1.441 -0.482,-1.761 -3.727,-2.406 -7.248,-1.442 -3.52,0.963 -5.984,3.172 -5.501,4.932 0.482,-1.758 -1.978,-3.964 -5.494,-4.928 -3.516,-0.963 -6.757,-0.319 -7.239,1.439 -1.117,-1.441 -4.358,-0.796 -7.239,1.438 -2.88,2.235 -4.309,5.214 -3.192,6.655 -0.227,-1.796 -3.323,-2.883 -6.914,-2.428 -3.592,0.455 -6.318,2.279 -6.091,4.075 -1.573,-0.895 -4.3,0.93 -6.09,4.075 -1.791,3.146 -1.967,6.422 -0.394,7.318 -0.897,-1.58 -4.186,-1.408 -7.345,0.386 -3.161,1.793 -4.995,4.529 -4.099,6.109 -1.801,-0.231 -3.636,2.503 -4.097,6.107 -0.461,3.604 0.626,6.713 2.428,6.944 -1.442,-1.12 -4.425,0.31 -6.664,3.195 -2.237,2.883 -2.883,6.128 -1.441,7.246 -1.761,0.482 -2.406,3.727 -1.442,7.248 0.964,3.52 3.172,5.983 4.932,5.502 -1.757,-0.482 -3.964,1.977 -4.927,5.493 -0.964,3.517 -0.32,6.757 1.438,7.239 -1.44,1.118 -0.796,4.359 1.438,7.239 2.235,2.881 5.214,4.309 6.654,3.192 -1.796,0.228 -2.882,3.323 -2.427,6.915 0.455,3.591 2.279,6.317 4.075,6.09 -0.895,1.573 0.929,4.3 4.075,6.091 3.146,1.79 6.422,1.967 7.318,0.394 -1.58,0.897 -1.407,4.186 0.386,7.345 1.794,3.16 4.528,4.995 6.109,4.098 -0.231,1.802 2.504,3.637 6.107,4.098 3.604,0.461 6.713,-0.626 6.944,-2.427 -1.119,1.441 0.311,4.423 3.195,6.663 2.883,2.237 6.128,2.883 7.247,1.441 0.482,1.76 3.727,2.405 7.248,1.442 3.52,-0.964 5.983,-3.172 5.501,-4.933 -0.482,1.758 1.977,3.965 5.494,4.929 3.516,0.962 6.757,0.319 7.239,-1.44 1.116,1.441 4.358,0.796 7.238,-1.438 2.88,-2.235 4.309,-5.214 3.193,-6.654 0.227,1.795 3.323,2.882 6.914,2.427 3.591,-0.454 6.318,-2.279 6.091,-4.074 1.572,0.894 4.299,-0.93 6.09,-4.075 1.79,-3.147 1.967,-6.422 0.394,-7.318 0.897,1.579 4.186,1.406 7.345,-0.387 3.16,-1.793 4.994,-4.528 4.098,-6.108 1.803,0.231 3.637,-2.504 4.098,-6.108 0.46,-3.604 -0.627,-6.712 -2.427,-6.943 1.44,1.119 4.424,-0.311 6.662,-3.195 C 4.287,17.112 4.933,13.868 3.491,12.749 5.251,12.267 5.897,9.022 4.934,5.502 3.969,1.981 1.761,-0.482 0,0"
             style="fill:#231f20;fill-opacity:1;fill-rule:nonzero;stroke:none"
             id="path9957" />
        </g>
        <g
           id="g9959"
           transform="translate(420.5537,156.4199)">
          <path
             d="m 0,0 c 10.148,-2.701 16.915,-10.376 15.116,-17.141 -1.801,-6.767 -11.489,-10.061 -21.636,-7.36 7.498,-7.469 9.54,-17.575 4.56,-22.574 -4.978,-4.999 -15.094,-2.996 -22.592,4.473 2.742,-10.219 -0.558,-19.984 -7.37,-21.813 -6.812,-1.826 -14.557,4.976 -17.3,15.193 -2.701,-10.148 -10.376,-16.915 -17.14,-15.115 -6.766,1.802 -10.061,11.488 -7.36,21.637 -7.467,-7.498 -17.575,-9.54 -22.574,-4.562 -4.999,4.979 -2.996,15.095 4.473,22.593 -10.219,-2.742 -19.986,0.558 -21.813,7.371 -1.827,6.811 4.975,14.557 15.194,17.298 -10.15,2.702 -16.916,10.376 -15.117,17.141 1.802,6.765 11.489,10.061 21.637,7.359 -7.497,7.469 -9.539,17.577 -4.559,22.576 4.977,4.998 15.092,2.996 22.59,-4.473 -2.741,10.217 0.559,19.984 7.371,21.811 6.813,1.828 14.557,-4.973 17.298,-15.192 2.702,10.148 10.376,16.915 17.142,15.113 6.766,-1.8 10.06,-11.486 7.359,-21.635 7.468,7.499 17.576,9.541 22.575,4.562 C 2.852,42.282 0.851,32.168 -6.618,24.669 3.6,27.41 13.364,24.111 15.193,17.299 17.021,10.486 10.219,2.742 0,0"
             style="fill:#231f20;fill-opacity:1;fill-rule:nonzero;stroke:none"
             id="path9961" />
        </g>
        <g
           id="g9963"
           transform="translate(573.9092,156.7393)">
          <path
             d="m 0,0 c 5.23,-0.594 9.15,-3.9 8.754,-7.388 -0.394,-3.486 -4.955,-5.832 -10.185,-5.239 4.822,-1.696 7.814,-5.678 6.683,-8.892 -1.13,-3.214 -5.956,-4.445 -10.778,-2.75 4.404,-2.775 6.473,-7.404 4.624,-10.339 -1.851,-2.937 -6.92,-3.067 -11.325,-0.292 3.698,-3.711 4.688,-8.72 2.213,-11.185 -2.474,-2.464 -7.477,-1.452 -11.174,2.26 2.706,-4.312 2.572,-9.272 -0.303,-11.077 -2.875,-1.806 -7.402,0.227 -10.11,4.54 1.738,-4.982 0.453,-9.958 -2.868,-11.116 -3.32,-1.158 -7.42,1.942 -9.156,6.922 0.56,-5.087 -1.734,-9.514 -5.127,-9.888 -3.391,-0.374 -6.596,3.447 -7.156,8.535 -0.594,-5.231 -3.9,-9.15 -7.387,-8.754 -3.487,0.395 -5.833,4.955 -5.24,10.185 -1.695,-4.822 -5.676,-7.813 -8.892,-6.683 -3.215,1.132 -4.444,5.957 -2.749,10.779 -2.774,-4.404 -7.404,-6.473 -10.34,-4.624 -2.936,1.85 -3.066,6.92 -0.291,11.323 -3.712,-3.697 -8.719,-4.687 -11.185,-2.213 -2.464,2.475 -1.453,7.479 2.26,11.176 -4.313,-2.708 -9.273,-2.574 -11.079,0.301 -1.803,2.876 0.228,7.401 4.541,10.109 -4.981,-1.736 -9.958,-0.453 -11.116,2.869 -1.158,3.321 1.942,7.421 6.922,9.158 -5.087,-0.562 -9.514,1.733 -9.889,5.126 -0.374,3.391 3.448,6.595 8.536,7.157 -5.23,0.593 -9.149,3.9 -8.754,7.387 0.395,3.486 4.956,5.833 10.186,5.239 -4.822,1.696 -7.815,5.679 -6.683,8.892 1.13,3.214 5.956,4.446 10.778,2.749 -4.404,2.777 -6.474,7.406 -4.624,10.341 1.851,2.936 6.92,3.067 11.324,0.29 -3.698,3.713 -4.687,8.721 -2.213,11.186 2.476,2.464 7.479,1.453 11.175,-2.26 -2.707,4.313 -2.572,9.273 0.302,11.077 2.876,1.806 7.402,-0.227 10.109,-4.54 -1.736,4.982 -0.452,9.958 2.869,11.115 3.321,1.16 7.421,-1.94 9.158,-6.921 -0.562,5.087 1.733,9.515 5.126,9.888 3.39,0.374 6.594,-3.447 7.156,-8.535 0.593,5.231 3.9,9.151 7.387,8.754 3.486,-0.395 5.833,-4.955 5.239,-10.185 1.696,4.822 5.678,7.813 8.891,6.682 3.215,-1.131 4.447,-5.956 2.749,-10.777 2.777,4.404 7.406,6.473 10.342,4.623 2.936,-1.85 3.066,-6.92 0.29,-11.323 3.712,3.697 8.72,4.688 11.184,2.213 2.466,-2.474 1.455,-7.478 -2.258,-11.175 4.313,2.708 9.272,2.573 11.077,-0.302 C 0.799,31.543 -1.233,27.017 -5.546,24.309 -0.565,26.046 4.411,24.762 5.569,21.44 6.727,18.119 3.628,14.019 -1.354,12.282 3.734,12.844 8.162,10.549 8.536,7.157 8.91,3.765 5.088,0.56 0,0"
             style="fill:#231f20;fill-opacity:1;fill-rule:nonzero;stroke:none"
             id="path9965" />
        </g>
      </g>
    </g>
  </g>
</svg>
